<svg viewBox="0 0 16 16"shape-rendering="crispEdges">
  <path fill="#eec39a" d="M12 4h1v1h1V2H4v4h3v1h3V6h1v1h1v1H6v1h1v1h1v1H4V8H3v4h10V5h-3v1H9V5H5V3h1v1h1V3h1v1h2V3h2v1zM2 13h9v2H2z" />
  <path fill="#bc8752" d="M12 13v2h1v-2h-1z" />
  <path fill="#847e87" d="M6 10H5v1h1v-1zm1-1H6v1h1V9z" />
  <path fill="#ad8253" d="M4 10h1v1H4z" />
  <path fill="#d9a066" d="M11 15v-2H2v2h9zM1 12v1H0v2h1v1h12v-1h-1v-2h1v2h1V5h-1v7H3V7H2v5H1zm14-7V1h1V0H4v1H3v4h1V2h10v3h1z" />
  <path fill="#ad8253" d="M5 6v2h7V7h-1V6h-1v1H7V6H5zm7-3h-2v1H8V3H7v1H6V3H5v2h4v1h1V5h3V4h-1V3z" />
  <path d="M2 5v2h1v1h1v2h2V8H5V6H4V5H3V4H1v1h1z" />
  <path fill="#696a6a" d="M6 11h2v-1H6v1z" />
</svg>